[Header]                  # Header keywords are followed by a single value
FileType htr              # single word string
DataType HTRS             # Hierarchical translations followed by rotations and Scale
FileVersion 1             # integer
NumSegments   22        # integer
NumFrames   7          # integer
DataFrameRate    60      # integer
EulerRotationOrder ZYX    # one word string
CalibrationUnits mm   # one word string
RotationUnits Degrees     # one word string
GlobalAxisofGravity Y        # character, X or Y or Z
BoneLengthAxis Y
ScaleFactor 1.0000
[SegmentNames&Hierarchy]
#CHILD         PARENT
LowerTorso	GLOBAL
MidTorso1	LowerTorso
MidTorso2	MidTorso1
UpperTorso	MidTorso2
Neck	UpperTorso
Head	Neck
LCollar	UpperTorso
LUpArm	LCollar
LLowArm	LUpArm
LHand	LLowArm
RCollar	UpperTorso
RUpArm	RCollar
RLowArm	RUpArm
RHand	RLowArm
RThigh	LowerTorso
RLowLeg	RThigh
RFoot	RLowLeg
RToe	RFoot
LThigh	LowerTorso
LLowLeg	LThigh
LFoot	LLowLeg
LToe	LFoot
[BasePosition]
#SegmentName Tx, Ty, Tz, Rx, Ry, Rz, BoneLength
LowerTorso	245.858011	950.547112	300.901792	3.160114	-0.119681	0.216534	50.177140	
MidTorso1	0.000000	50.177140	0.000000	12.744977	0.544086	-1.233692	50.243103	
MidTorso2	0.000000	50.243103	0.000000	-8.561622	-5.666755	-0.324056	70.108070	
UpperTorso	0.000000	70.108070	0.000000	-7.840640	5.423498	1.565454	211.798493	
Neck	0.000000	211.798493	0.000000	3.763396	2.354772	0.143986	247.477358	
Head	0.000000	247.477358	0.000000	87.188098	-1.617490	-0.909978	97.755902	
LCollar	5.963899	207.774288	0.020038	-0.085181	3.120430	-88.053499	154.341182	
LUpArm	0.000000	154.341182	0.000000	17.609330	2.601210	1.098979	257.694232	
LLowArm	0.000000	257.694232	0.000000	-4.295116	-4.411555	-0.381267	245.288314	
LHand	0.000000	245.288314	0.000000	-1.254656	0.451892	-3.187610	143.943585	
RCollar	-6.407295	207.548200	-0.033576	-3.957489	-2.573361	89.782717	159.716168	
RUpArm	0.000000	159.716168	0.000000	10.569861	0.025507	1.593474	259.181013	
RLowArm	0.000000	259.181013	0.000000	2.433186	-0.094719	0.439860	254.783021	
RHand	0.000000	254.783021	0.000000	-2.521327	-1.940663	10.821380	138.724995	
RThigh	-104.582724	-43.868855	71.110148	1.186921	1.056410	177.271085	484.665755	
RLowLeg	0.000000	484.665755	0.000000	-9.413113	-2.560999	2.584420	338.943480	
RFoot	0.000000	338.943480	0.000000	38.119802	-1.210697	-2.462270	108.422675	
RToe	0.000000	108.422675	0.000000	62.205972	5.729825	0.107186	135.948299	
LThigh	104.514322	-44.027056	71.110540	1.887019	-3.794944	-176.973714	484.665500	
LLowLeg	0.000000	484.665500	0.000000	-9.413064	2.561022	-2.584327	338.944952	
LFoot	0.000000	338.944952	0.000000	38.119895	1.210631	2.462181	108.422417	
LToe	0.000000	108.422417	0.000000	62.206117	-5.729564	-0.107296	135.948400	
#Beginning of Data. Separated by tabs
[LowerTorso]
#Fr     Tx      Ty      Tz      Rx      Ry      Rz      SF
176	1057.476440	36.020802	270.427063	-137.805374	-80.368942	148.118744	1.000000	
177	1037.672607	21.874098	266.551025	-130.466232	-82.401787	140.301727	1.000000	
178	1017.412476	4.636424	262.639313	-119.069443	-84.119896	128.264145	1.000000	
179	995.102173	-16.996416	261.850128	-116.481575	-85.952789	124.215630	1.000000	
180	973.526672	-38.995548	259.126526	-94.259338	-86.855408	100.528519	1.000000	
181	950.853149	-61.621716	257.351837	-67.494148	-87.037689	72.180519	1.000000	
182	926.480408	-83.330299	256.499237	-46.469063	-86.400970	49.702621	1.000000	
[MidTorso1]
#Fr     Tx      Ty      Tz      Rx      Ry      Rz      SF
176	0.000000	0.000000	0.000000	-0.154290	1.981665	-1.747388	1.000000	
177	0.000000	0.000000	0.000000	-0.218140	2.021540	-1.919466	1.000000	
178	0.000000	0.000000	0.000000	-0.203569	2.065829	-2.120988	1.000000	
179	0.000000	0.000000	0.000000	0.110871	2.573157	-1.744726	1.000000	
180	0.000000	0.000000	0.000000	0.540176	2.908004	-1.969316	1.000000	
181	0.000000	0.000000	0.000000	1.026592	3.449582	-2.189609	1.000000	
182	0.000000	0.000000	0.000000	1.413202	4.079082	-2.512557	1.000000	
[MidTorso2]
#Fr     Tx      Ty      Tz      Rx      Ry      Rz      SF
176	0.000000	0.000000	0.000000	-0.334251	2.213481	-1.414868	1.000000	
177	0.000000	0.000000	0.000000	-0.415192	2.276712	-1.572863	1.000000	
178	0.000000	0.000000	0.000000	-0.421499	2.350075	-1.766954	1.000000	
179	0.000000	0.000000	0.000000	-0.070759	2.803502	-1.351329	1.000000	
180	0.000000	0.000000	0.000000	0.331707	3.176252	-1.566144	1.000000	
181	0.000000	0.000000	0.000000	0.791161	3.754365	-1.752333	1.000000	
182	0.000000	0.000000	0.000000	1.141349	4.432424	-2.018294	1.000000	
[UpperTorso]
#Fr     Tx      Ty      Tz      Rx      Ry      Rz      SF
176	0.000000	0.000000	0.000000	-0.135240	2.397430	-1.111326	1.000000	
177	0.000000	0.000000	0.000000	-0.199536	2.484968	-1.264799	1.000000	
178	0.000000	0.000000	0.000000	-0.185696	2.584588	-1.445512	1.000000	
179	0.000000	0.000000	0.000000	0.142011	2.961953	-0.941080	1.000000	
180	0.000000	0.000000	0.000000	0.577484	3.343955	-1.062376	1.000000	
181	0.000000	0.000000	0.000000	1.075990	3.922517	-1.120657	1.000000	
182	0.000000	0.000000	0.000000	1.478084	4.615133	-1.251742	1.000000	
[Neck]
#Fr     Tx      Ty      Tz      Rx      Ry      Rz      SF
176	0.000000	0.000000	0.000000	-3.907769	5.623906	-4.859466	1.000000	
177	0.000000	0.000000	0.000000	-3.654246	3.622477	-4.451706	1.000000	
178	0.000000	0.000000	0.000000	-3.629340	1.715740	-4.052805	1.000000	
179	0.000000	0.000000	0.000000	-3.941499	-0.143631	-4.766662	1.000000	
180	0.000000	0.000000	0.000000	-4.822605	-2.223739	-4.631178	1.000000	
181	0.000000	0.000000	0.000000	-5.932452	-4.478590	-4.663365	1.000000	
182	0.000000	0.000000	0.000000	-6.967634	-6.824996	-4.637065	1.000000	
[Head]
#Fr     Tx      Ty      Tz      Rx      Ry      Rz      SF
176	0.000000	0.000000	0.000000	-1.472596	-2.469234	0.165860	1.000000	
177	0.000000	0.000000	0.000000	-1.407372	-1.866216	0.121476	1.000000	
178	0.000000	0.000000	0.000000	-1.477528	-1.172870	0.100521	1.000000	
179	0.000000	0.000000	0.000000	-2.277180	-0.527690	0.107759	1.000000	
180	0.000000	0.000000	0.000000	-2.634453	0.130715	0.109054	1.000000	
181	0.000000	0.000000	0.000000	-3.084920	0.732611	0.125202	1.000000	
182	0.000000	0.000000	0.000000	-3.422784	1.329067	0.137330	1.000000	
[LCollar]
#Fr     Tx      Ty      Tz      Rx      Ry      Rz      SF
176	0.000000	0.000000	0.000000	5.834173	1.422808	-13.658228	1.000000	
177	0.000000	0.000000	0.000000	5.425152	1.337647	-13.809503	1.000000	
178	0.000000	0.000000	0.000000	4.597350	1.136245	-13.852772	1.000000	
179	0.000000	0.000000	0.000000	7.253235	1.750935	-13.499386	1.000000	
180	0.000000	0.000000	0.000000	6.109908	1.519443	-13.912567	1.000000	
181	0.000000	0.000000	0.000000	4.931834	1.309494	-14.833374	1.000000	
182	0.000000	0.000000	0.000000	3.740679	1.094589	-16.287260	1.000000	
[LUpArm]
#Fr     Tx      Ty      Tz      Rx      Ry      Rz      SF
176	0.000000	0.000000	0.000000	1.498781	11.620645	-42.777107	1.000000	
177	0.000000	0.000000	0.000000	0.782390	12.421767	-44.562874	1.000000	
178	0.000000	0.000000	0.000000	0.261997	13.032580	-46.486916	1.000000	
179	0.000000	0.000000	0.000000	-4.012967	10.488407	-51.160328	1.000000	
180	0.000000	0.000000	0.000000	-3.972938	10.475093	-52.675762	1.000000	
181	0.000000	0.000000	0.000000	-3.779434	10.617337	-53.535187	1.000000	
182	0.000000	0.000000	0.000000	-3.740280	10.976668	-53.613750	1.000000	
[LLowArm]
#Fr     Tx      Ty      Tz      Rx      Ry      Rz      SF
176	0.000000	0.000000	0.000000	104.109398	-0.012146	-0.015573	1.000000	
177	0.000000	0.000000	0.000000	100.453705	-0.012315	-0.014793	1.000000	
178	0.000000	0.000000	0.000000	96.320335	-0.012447	-0.013899	1.000000	
179	0.000000	0.000000	0.000000	94.313431	-0.012488	-0.013462	1.000000	
180	0.000000	0.000000	0.000000	89.352829	-0.012522	-0.012379	1.000000	
181	0.000000	0.000000	0.000000	83.932281	-0.012453	-0.011197	1.000000	
182	0.000000	0.000000	0.000000	78.179451	-0.012257	-0.009956	1.000000	
[LHand]
#Fr     Tx      Ty      Tz      Rx      Ry      Rz      SF
176	0.000000	0.000000	0.000000	19.070265	11.233151	-2.640906	1.000000	
177	0.000000	0.000000	0.000000	18.560411	10.523430	-3.165495	1.000000	
178	0.000000	0.000000	0.000000	18.458757	9.291048	-4.044400	1.000000	
179	0.000000	0.000000	0.000000	19.342834	7.821347	-3.167275	1.000000	
180	0.000000	0.000000	0.000000	20.013765	4.788214	-4.851984	1.000000	
181	0.000000	0.000000	0.000000	20.779596	0.751348	-6.417083	1.000000	
182	0.000000	0.000000	0.000000	21.664820	-3.899796	-7.431738	1.000000	
[RCollar]
#Fr     Tx      Ty      Tz      Rx      Ry      Rz      SF
176	0.000000	0.000000	0.000000	6.667759	-1.834796	15.316602	1.000000	
177	0.000000	0.000000	0.000000	6.964193	-1.964784	15.678220	1.000000	
178	0.000000	0.000000	0.000000	7.614340	-2.195012	15.987047	1.000000	
179	0.000000	0.000000	0.000000	5.052804	-1.413360	15.586952	1.000000	
180	0.000000	0.000000	0.000000	5.969053	-1.691632	15.765926	1.000000	
181	0.000000	0.000000	0.000000	6.874760	-1.941347	15.693968	1.000000	
182	0.000000	0.000000	0.000000	7.717257	-2.140961	15.412358	1.000000	
[RUpArm]
#Fr     Tx      Ty      Tz      Rx      Ry      Rz      SF
176	0.000000	0.000000	0.000000	5.340691	-15.620559	42.872852	1.000000	
177	0.000000	0.000000	0.000000	5.880176	-16.539318	42.857124	1.000000	
178	0.000000	0.000000	0.000000	6.510773	-17.317135	42.669819	1.000000	
179	0.000000	0.000000	0.000000	10.595674	-19.378237	41.509861	1.000000	
180	0.000000	0.000000	0.000000	11.260002	-19.678606	40.361847	1.000000	
181	0.000000	0.000000	0.000000	11.335745	-19.958714	39.099819	1.000000	
182	0.000000	0.000000	0.000000	10.426180	-20.453253	38.253078	1.000000	
[RLowArm]
#Fr     Tx      Ty      Tz      Rx      Ry      Rz      SF
176	0.000000	0.000000	0.000000	128.744064	-0.000011	0.000055	1.000000	
177	0.000000	0.000000	0.000000	129.118149	-0.000011	0.000055	1.000000	
178	0.000000	0.000000	0.000000	129.560150	-0.000011	0.000055	1.000000	
179	0.000000	0.000000	0.000000	127.598183	-0.000010	0.000055	1.000000	
180	0.000000	0.000000	0.000000	127.689957	-0.000010	0.000055	1.000000	
181	0.000000	0.000000	0.000000	127.113022	-0.000010	0.000055	1.000000	
182	0.000000	0.000000	0.000000	125.309067	-0.000009	0.000054	1.000000	
[RHand]
#Fr     Tx      Ty      Tz      Rx      Ry      Rz      SF
176	0.000000	0.000000	0.000000	18.795412	-15.394974	-13.862645	1.000000	
177	0.000000	0.000000	0.000000	18.053036	-17.164124	-14.641561	1.000000	
178	0.000000	0.000000	0.000000	17.339788	-18.605938	-15.349279	1.000000	
179	0.000000	0.000000	0.000000	18.363647	-19.529272	-15.374995	1.000000	
180	0.000000	0.000000	0.000000	17.628119	-20.869341	-15.902328	1.000000	
181	0.000000	0.000000	0.000000	16.848557	-22.500517	-16.349714	1.000000	
182	0.000000	0.000000	0.000000	16.101776	-24.227560	-16.715160	1.000000	
[RThigh]
#Fr     Tx      Ty      Tz      Rx      Ry      Rz      SF
176	0.000000	0.000000	0.000000	3.219086	-14.291510	-2.368366	1.000000	
177	0.000000	0.000000	0.000000	2.381585	-13.683640	-1.050258	1.000000	
178	0.000000	0.000000	0.000000	1.192649	-12.391390	0.199610	1.000000	
179	0.000000	0.000000	0.000000	-1.598130	-11.116028	2.056727	1.000000	
180	0.000000	0.000000	0.000000	-4.447573	-9.274735	3.122976	1.000000	
181	0.000000	0.000000	0.000000	-7.930099	-7.742608	4.152989	1.000000	
182	0.000000	0.000000	0.000000	-11.598305	-6.609153	5.040754	1.000000	
[RLowLeg]
#Fr     Tx      Ty      Tz      Rx      Ry      Rz      SF
176	0.000000	0.000000	0.000000	-16.807533	0.000000	-0.000006	1.000000	
177	0.000000	0.000000	0.000000	-17.479366	0.000000	-0.000006	1.000000	
178	0.000000	0.000000	0.000000	-19.207787	0.000000	-0.000007	1.000000	
179	0.000000	0.000000	0.000000	-19.658653	0.000000	-0.000007	1.000000	
180	0.000000	0.000000	0.000000	-22.247597	0.000000	-0.000008	1.000000	
181	0.000000	0.000000	0.000000	-24.099705	0.000000	-0.000009	1.000000	
182	0.000000	0.000000	0.000000	-25.193176	0.000000	-0.000009	1.000000	
[RFoot]
#Fr     Tx      Ty      Tz      Rx      Ry      Rz      SF
176	0.000000	0.000000	0.000000	-3.664120	1.168462	17.663397	1.000000	
177	0.000000	0.000000	0.000000	-1.471449	0.387941	14.766531	1.000000	
178	0.000000	0.000000	0.000000	2.364812	-0.514239	12.261328	1.000000	
179	0.000000	0.000000	0.000000	2.915923	-0.711328	13.697593	1.000000	
180	0.000000	0.000000	0.000000	8.403053	-1.880607	12.525084	1.000000	
181	0.000000	0.000000	0.000000	13.255960	-2.704172	11.324799	1.000000	
182	0.000000	0.000000	0.000000	16.732794	-3.015462	9.925108	1.000000	
[RToe]
#Fr     Tx      Ty      Tz      Rx      Ry      Rz      SF
176	0.000000	0.000000	0.000000	3.218217	0.000006	0.000001	1.000000	
177	0.000000	0.000000	0.000000	2.516390	0.000005	0.000001	1.000000	
178	0.000000	0.000000	0.000000	1.515385	0.000003	0.000001	1.000000	
179	0.000000	0.000000	0.000000	7.864813	0.000015	0.000004	1.000000	
180	0.000000	0.000000	0.000000	7.264632	0.000014	0.000004	1.000000	
181	0.000000	0.000000	0.000000	7.111843	0.000013	0.000004	1.000000	
182	0.000000	0.000000	0.000000	7.753212	0.000015	0.000004	1.000000	
[LThigh]
#Fr     Tx      Ty      Tz      Rx      Ry      Rz      SF
176	0.000000	0.000000	0.000000	36.718105	-10.739689	-12.627336	1.000000	
177	0.000000	0.000000	0.000000	37.750126	-11.723556	-13.782853	1.000000	
178	0.000000	0.000000	0.000000	38.988361	-12.949169	-15.189965	1.000000	
179	0.000000	0.000000	0.000000	40.162270	-13.790435	-15.205556	1.000000	
180	0.000000	0.000000	0.000000	41.028248	-15.316250	-16.583530	1.000000	
181	0.000000	0.000000	0.000000	41.797459	-16.737146	-17.845200	1.000000	
182	0.000000	0.000000	0.000000	42.352615	-17.663290	-19.053473	1.000000	
[LLowLeg]
#Fr     Tx      Ty      Tz      Rx      Ry      Rz      SF
176	0.000000	0.000000	0.000000	-26.185024	0.000045	-0.000022	1.000000	
177	0.000000	0.000000	0.000000	-22.757059	0.000040	-0.000018	1.000000	
178	0.000000	0.000000	0.000000	-20.504591	0.000036	-0.000016	1.000000	
179	0.000000	0.000000	0.000000	-21.201529	0.000038	-0.000016	1.000000	
180	0.000000	0.000000	0.000000	-21.289190	0.000038	-0.000017	1.000000	
181	0.000000	0.000000	0.000000	-22.669401	0.000040	-0.000018	1.000000	
182	0.000000	0.000000	0.000000	-25.233784	0.000044	-0.000021	1.000000	
[LFoot]
#Fr     Tx      Ty      Tz      Rx      Ry      Rz      SF
176	0.000000	0.000000	0.000000	-0.421678	-0.126920	-16.745859	1.000000	
177	0.000000	0.000000	0.000000	-0.892463	-0.234182	-14.699671	1.000000	
178	0.000000	0.000000	0.000000	-1.316169	-0.300475	-12.856511	1.000000	
179	0.000000	0.000000	0.000000	-1.264052	-0.194877	-8.761937	1.000000	
180	0.000000	0.000000	0.000000	-1.798452	-0.226237	-7.167074	1.000000	
181	0.000000	0.000000	0.000000	-1.850762	-0.180266	-5.560841	1.000000	
182	0.000000	0.000000	0.000000	-0.740332	-0.049032	-3.788299	1.000000	
[LToe]
#Fr     Tx      Ty      Tz      Rx      Ry      Rz      SF
176	0.000000	0.000000	0.000000	-25.404745	-0.000072	0.000008	1.000000	
177	0.000000	0.000000	0.000000	-25.768709	-0.000072	0.000008	1.000000	
178	0.000000	0.000000	0.000000	-25.683922	-0.000072	0.000008	1.000000	
179	0.000000	0.000000	0.000000	-18.865910	-0.000054	0.000003	1.000000	
180	0.000000	0.000000	0.000000	-16.483011	-0.000047	0.000001	1.000000	
181	0.000000	0.000000	0.000000	-14.427257	-0.000041	0.000001	1.000000	
182	0.000000	0.000000	0.000000	-13.762205	-0.000039	0.000000	1.000000	
[EndOfFile]
